<svg xmlns="http://www.w3.org/2000/svg" xmlns:xlink="http://www.w3.org/1999/xlink" viewBox="0 0 664 371.6363636363636" width="664" height="371.6363636363636"><path d="M 30.545,176.091 C 35.695,178.062 35.636,176.818 40.727,177.545" stroke-width="5.126" stroke="black" fill="none" stroke-linecap="round"></path><path d="M 40.727,177.545 C 49.992,175.938 49.876,176.607 58.909,173.182" stroke-width="3.127" stroke="black" fill="none" stroke-linecap="round"></path><path d="M 58.909,173.182 C 69.930,169.463 69.992,169.756 80.727,165.182" stroke-width="2.493" stroke="black" fill="none" stroke-linecap="round"></path><path d="M 80.727,165.182 C 90.919,160.842 91.021,161.100 101.091,156.455" stroke-width="2.457" stroke="black" fill="none" stroke-linecap="round"></path><path d="M 101.091,156.455 C 109.590,153.100 109.465,152.842 117.818,149.182" stroke-width="2.575" stroke="black" fill="none" stroke-linecap="round"></path><path d="M 117.818,149.182 C 124.736,145.562 124.863,145.827 131.636,141.909" stroke-width="2.913" stroke="black" fill="none" stroke-linecap="round"></path><path d="M 131.636,141.909 C 137.396,139.458 137.100,139.017 142.545,136.091" stroke-width="3.145" stroke="black" fill="none" stroke-linecap="round"></path><path d="M 142.545,136.091 C 147.419,133.393 146.851,133.276 150.545,129.545" stroke-width="3.433" stroke="black" fill="none" stroke-linecap="round"></path><path d="M 150.545,129.545 C 153.321,124.455 152.147,127.575 152.000,124.455" stroke-width="4.550" stroke="black" fill="none" stroke-linecap="round"></path><path d="M 152.000,124.455 C 146.408,126.070 149.321,124.455 142.545,129.545" stroke-width="4.761" stroke="black" fill="none" stroke-linecap="round"></path><path d="M 142.545,129.545 C 139.871,133.468 139.135,132.615 137.455,137.545" stroke-width="3.893" stroke="black" fill="none" stroke-linecap="round"></path><path d="M 137.455,137.545 C 133.689,143.133 134.053,143.286 130.909,149.182" stroke-width="3.342" stroke="black" fill="none" stroke-linecap="round"></path><path d="M 130.909,149.182 C 127.718,156.720 127.507,156.587 125.091,164.455" stroke-width="2.930" stroke="black" fill="none" stroke-linecap="round"></path><path d="M 125.091,164.455 C 121.143,176.002 121.172,175.993 117.818,187.727" stroke-width="2.467" stroke="black" fill="none" stroke-linecap="round"></path><path d="M 117.818,187.727 C 114.240,200.384 114.234,200.366 111.273,213.182" stroke-width="2.220" stroke="black" fill="none" stroke-linecap="round"></path><path d="M 111.273,213.182 C 108.840,225.570 108.422,225.475 106.182,237.909" stroke-width="2.250" stroke="black" fill="none" stroke-linecap="round"></path><path d="M 106.182,237.909 C 103.618,249.178 103.749,249.206 101.091,260.455" stroke-width="2.342" stroke="black" fill="none" stroke-linecap="round"></path><path d="M 101.091,260.455 C 99.264,270.368 98.891,270.269 96.727,280.091" stroke-width="2.445" stroke="black" fill="none" stroke-linecap="round"></path><path d="M 96.727,280.091 C 94.784,287.087 94.900,287.095 92.364,293.909" stroke-width="2.831" stroke="black" fill="none" stroke-linecap="round"></path><path d="M 92.364,293.909 C 91.300,300.765 90.784,298.360 88.727,302.636" stroke-width="3.338" stroke="black" fill="none" stroke-linecap="round"></path><path d="M 88.727,302.636 C 86.383,301.390 87.300,303.674 84.364,299.727" stroke-width="4.408" stroke="black" fill="none" stroke-linecap="round"></path><path d="M 84.364,299.727 C 79.684,296.605 80.201,296.299 76.364,292.455" stroke-width="4.330" stroke="black" fill="none" stroke-linecap="round"></path><path d="M 76.364,292.455 C 74.097,288.988 73.866,289.333 72.727,285.182" stroke-width="3.949" stroke="black" fill="none" stroke-linecap="round"></path><path d="M 72.727,285.182 C 70.922,279.791 70.825,279.897 69.818,274.273" stroke-width="3.591" stroke="black" fill="none" stroke-linecap="round"></path><path d="M 69.818,274.273 C 68.933,270.623 69.104,270.700 69.091,267.000" stroke-width="3.868" stroke="black" fill="none" stroke-linecap="round"></path><path d="M 69.091,267.000 C 69.309,262.137 69.297,262.259 70.545,257.545" stroke-width="3.729" stroke="black" fill="none" stroke-linecap="round"></path><path d="M 70.545,257.545 C 71.859,252.557 71.855,252.683 74.182,248.091" stroke-width="3.584" stroke="black" fill="none" stroke-linecap="round"></path><path d="M 74.182,248.091 C 76.802,243.503 76.587,243.466 80.000,239.364" stroke-width="3.510" stroke="black" fill="none" stroke-linecap="round"></path><path d="M 80.000,239.364 C 83.177,235.637 82.984,235.503 86.545,232.091" stroke-width="3.603" stroke="black" fill="none" stroke-linecap="round"></path><path d="M 86.545,232.091 C 90.009,228.264 90.086,228.364 93.818,224.818" stroke-width="3.533" stroke="black" fill="none" stroke-linecap="round"></path><path d="M 93.818,224.818 C 97.688,221.370 97.646,221.355 101.818,218.273" stroke-width="3.561" stroke="black" fill="none" stroke-linecap="round"></path><path d="M 101.818,218.273 C 105.066,216.053 104.961,215.916 108.364,213.909" stroke-width="3.801" stroke="black" fill="none" stroke-linecap="round"></path><path d="M 108.364,213.909 C 112.398,211.416 112.339,211.325 116.364,208.818" stroke-width="3.666" stroke="black" fill="none" stroke-linecap="round"></path><path d="M 116.364,208.818 C 123.025,204.615 122.943,204.507 129.455,200.091" stroke-width="3.043" stroke="black" fill="none" stroke-linecap="round"></path><path d="M 129.455,200.091 C 136.292,194.125 132.843,197.706 136.000,195.000" stroke-width="3.946" stroke="black" fill="none" stroke-linecap="round"></path><path d="M 136.000,195.000 C 131.458,199.370 135.564,196.307 128.000,204.455" stroke-width="4.639" stroke="black" fill="none" stroke-linecap="round"></path><path d="M 128.000,204.455 C 125.406,208.661 125.276,208.461 123.636,213.182" stroke-width="3.838" stroke="black" fill="none" stroke-linecap="round"></path><path d="M 123.636,213.182 C 121.808,217.114 122.133,217.024 121.455,221.182" stroke-width="3.798" stroke="black" fill="none" stroke-linecap="round"></path><path d="M 121.455,221.182 C 120.002,227.332 121.081,225.478 122.182,229.909" stroke-width="4.246" stroke="black" fill="none" stroke-linecap="round"></path><path d="M 122.182,229.909 C 126.127,231.512 124.002,232.060 129.455,230.636" stroke-width="4.474" stroke="black" fill="none" stroke-linecap="round"></path><path d="M 129.455,230.636 C 132.993,228.779 133.036,229.694 136.000,226.273" stroke-width="4.015" stroke="black" fill="none" stroke-linecap="round"></path><path d="M 136.000,226.273 C 139.382,223.101 139.538,223.324 142.545,219.727" stroke-width="3.688" stroke="black" fill="none" stroke-linecap="round"></path><path d="M 142.545,219.727 C 145.063,217.405 144.837,217.283 146.909,214.636" stroke-width="3.877" stroke="black" fill="none" stroke-linecap="round"></path><path d="M 146.909,214.636 C 148.443,211.764 148.700,211.950 149.818,208.818" stroke-width="3.962" stroke="black" fill="none" stroke-linecap="round"></path><path d="M 149.818,208.818 C 151.814,203.727 150.989,206.310 152.000,203.727" stroke-width="4.524" stroke="black" fill="none" stroke-linecap="round"></path><path d="M 152.000,203.727 C 151.004,206.221 152.178,203.727 150.545,208.818" stroke-width="4.985" stroke="black" fill="none" stroke-linecap="round"></path><path d="M 150.545,208.818 C 148.577,213.402 149.913,212.403 149.818,216.091" stroke-width="4.713" stroke="black" fill="none" stroke-linecap="round"></path><path d="M 149.818,216.091 C 152.496,218.809 150.759,218.129 154.909,218.273" stroke-width="4.799" stroke="black" fill="none" stroke-linecap="round"></path><path d="M 154.909,218.273 C 159.330,216.224 159.041,217.355 162.909,213.182" stroke-width="3.836" stroke="black" fill="none" stroke-linecap="round"></path><path d="M 162.909,213.182 C 166.003,209.360 166.602,210.043 169.455,205.909" stroke-width="3.646" stroke="black" fill="none" stroke-linecap="round"></path><path d="M 169.455,205.909 C 172.093,201.645 171.458,203.906 173.818,202.273" stroke-width="4.027" stroke="black" fill="none" stroke-linecap="round"></path><path d="M 173.818,202.273 C 176.041,205.386 176.093,203.100 177.455,208.818" stroke-width="4.767" stroke="black" fill="none" stroke-linecap="round"></path><path d="M 177.455,208.818 C 176.805,214.110 178.587,211.567 178.909,214.636" stroke-width="4.762" stroke="black" fill="none" stroke-linecap="round"></path><path d="M 178.909,214.636 C 184.657,214.437 182.624,215.565 189.091,211.727" stroke-width="4.443" stroke="black" fill="none" stroke-linecap="round"></path><path d="M 189.091,211.727 C 197.537,205.663 197.748,206.437 205.091,198.636" stroke-width="2.913" stroke="black" fill="none" stroke-linecap="round"></path><path d="M 205.091,198.636 C 213.060,190.927 213.173,191.118 220.364,182.636" stroke-width="2.568" stroke="black" fill="none" stroke-linecap="round"></path><path d="M 220.364,182.636 C 226.747,175.708 226.514,175.654 232.000,168.091" stroke-width="2.590" stroke="black" fill="none" stroke-linecap="round"></path><path d="M 232.000,168.091 C 235.544,160.657 234.020,165.162 234.909,161.545" stroke-width="3.451" stroke="black" fill="none" stroke-linecap="round"></path><path d="M 234.909,161.545 C 231.054,167.094 233.726,163.202 228.364,173.182" stroke-width="4.287" stroke="black" fill="none" stroke-linecap="round"></path><path d="M 228.364,173.182 C 224.681,182.983 224.145,182.730 221.091,192.818" stroke-width="2.876" stroke="black" fill="none" stroke-linecap="round"></path><path d="M 221.091,192.818 C 215.677,205.698 216.318,205.892 211.636,219.000" stroke-width="2.374" stroke="black" fill="none" stroke-linecap="round"></path><path d="M 211.636,219.000 C 207.680,234.648 206.950,234.425 203.636,250.273" stroke-width="1.993" stroke="black" fill="none" stroke-linecap="round"></path><path d="M 203.636,250.273 C 199.507,265.513 199.680,265.557 195.636,280.818" stroke-width="1.976" stroke="black" fill="none" stroke-linecap="round"></path><path d="M 195.636,280.818 C 192.239,297.352 191.507,297.149 187.636,313.546" stroke-width="1.912" stroke="black" fill="none" stroke-linecap="round"></path><path d="M 187.636,313.546 C 182.155,331.843 182.421,331.897 176.000,349.909" stroke-width="1.783" stroke="black" fill="none" stroke-linecap="round"></path><path d="M 176.000,349.909 C 170.565,364.825 170.882,364.933 165.091,379.727" stroke-width="1.952" stroke="black" fill="none" stroke-linecap="round"></path><path d="M 277.091,126.636 C 276.407,131.734 276.364,131.727 275.636,136.818" stroke-width="4.642" stroke="black" fill="none" stroke-linecap="round"></path><path d="M 275.636,136.818 C 274.770,143.769 274.589,143.734 273.455,150.636" stroke-width="3.357" stroke="black" fill="none" stroke-linecap="round"></path><path d="M 273.455,150.636 C 271.331,160.831 271.497,160.860 269.091,171.000" stroke-width="2.795" stroke="black" fill="none" stroke-linecap="round"></path><path d="M 269.091,171.000 C 266.886,182.361 266.604,182.286 264.000,193.545" stroke-width="2.494" stroke="black" fill="none" stroke-linecap="round"></path><path d="M 264.000,193.545 C 260.632,204.792 261.068,204.906 257.455,216.091" stroke-width="2.340" stroke="black" fill="none" stroke-linecap="round"></path><path d="M 257.455,216.091 C 254.198,228.095 254.087,228.064 250.909,240.091" stroke-width="2.300" stroke="black" fill="none" stroke-linecap="round"></path><path d="M 250.909,240.091 C 248.177,250.689 248.016,250.641 245.091,261.182" stroke-width="2.409" stroke="black" fill="none" stroke-linecap="round"></path><path d="M 245.091,261.182 C 241.595,269.009 242.722,269.234 240.000,277.182" stroke-width="2.635" stroke="black" fill="none" stroke-linecap="round"></path><path d="M 315.636,144.818 C 313.602,152.264 312.727,151.727 309.818,158.636" stroke-width="4.853" stroke="black" fill="none" stroke-linecap="round"></path><path d="M 309.818,158.636 C 305.848,163.389 306.693,163.900 301.818,168.091" stroke-width="3.611" stroke="black" fill="none" stroke-linecap="round"></path><path d="M 301.818,168.091 C 297.452,173.911 297.121,173.571 292.364,179.000" stroke-width="3.193" stroke="black" fill="none" stroke-linecap="round"></path><path d="M 292.364,179.000 C 287.683,183.056 287.998,183.366 282.909,187.000" stroke-width="3.236" stroke="black" fill="none" stroke-linecap="round"></path><path d="M 282.909,187.000 C 279.466,190.198 279.319,189.966 275.636,192.818" stroke-width="3.505" stroke="black" fill="none" stroke-linecap="round"></path><path d="M 275.636,192.818 C 272.403,194.711 272.557,194.925 269.091,196.455" stroke-width="3.776" stroke="black" fill="none" stroke-linecap="round"></path><path d="M 269.091,196.455 C 261.818,198.942 265.494,198.348 261.818,200.091" stroke-width="4.263" stroke="black" fill="none" stroke-linecap="round"></path><path d="M 261.818,200.091 C 265.807,199.505 261.818,201.124 269.091,200.818" stroke-width="4.959" stroke="black" fill="none" stroke-linecap="round"></path><path d="M 269.091,200.818 C 272.701,203.403 273.080,202.414 276.364,205.909" stroke-width="4.001" stroke="black" fill="none" stroke-linecap="round"></path><path d="M 276.364,205.909 C 279.576,208.189 279.610,208.130 282.909,210.273" stroke-width="3.891" stroke="black" fill="none" stroke-linecap="round"></path><path d="M 282.909,210.273 C 285.382,211.873 285.394,211.826 288.000,213.182" stroke-width="4.091" stroke="black" fill="none" stroke-linecap="round"></path><path d="M 288.000,213.182 C 290.418,215.236 290.473,214.418 293.091,215.364" stroke-width="4.152" stroke="black" fill="none" stroke-linecap="round"></path><path d="M 293.091,215.364 C 298.474,215.436 298.054,215.600 303.273,213.909" stroke-width="4.267" stroke="black" fill="none" stroke-linecap="round"></path><path d="M 303.273,213.909 C 306.704,212.660 306.474,212.891 309.091,210.273" stroke-width="4.030" stroke="black" fill="none" stroke-linecap="round"></path><path d="M 309.091,210.273 C 312.615,206.078 312.886,206.478 315.636,201.545" stroke-width="3.525" stroke="black" fill="none" stroke-linecap="round"></path><path d="M 315.636,201.545 C 318.939,196.109 319.160,196.260 322.182,190.636" stroke-width="3.304" stroke="black" fill="none" stroke-linecap="round"></path><path d="M 322.182,190.636 C 324.839,186.333 324.757,186.290 327.273,181.909" stroke-width="3.403" stroke="black" fill="none" stroke-linecap="round"></path><path d="M 327.273,181.909 C 328.807,179.037 328.839,179.061 330.182,176.091" stroke-width="3.843" stroke="black" fill="none" stroke-linecap="round"></path><path d="M 330.182,176.091 C 332.010,170.823 331.352,173.582 332.364,171.000" stroke-width="4.476" stroke="black" fill="none" stroke-linecap="round"></path><path d="M 332.364,171.000 C 332.284,173.967 332.738,171.187 331.636,176.818" stroke-width="4.946" stroke="black" fill="none" stroke-linecap="round"></path><path d="M 331.636,176.818 C 330.284,181.941 330.466,181.967 328.727,187.000" stroke-width="3.808" stroke="black" fill="none" stroke-linecap="round"></path><path d="M 328.727,187.000 C 327.026,191.298 327.375,191.395 325.818,195.727" stroke-width="3.639" stroke="black" fill="none" stroke-linecap="round"></path><path d="M 325.818,195.727 C 324.913,199.337 324.844,199.298 324.364,203.000" stroke-width="3.780" stroke="black" fill="none" stroke-linecap="round"></path><path d="M 324.364,203.000 C 322.356,207.925 323.822,206.610 323.636,210.273" stroke-width="4.337" stroke="black" fill="none" stroke-linecap="round"></path><path d="M 323.636,210.273 C 326.480,211.899 324.537,211.925 328.727,211.000" stroke-width="4.681" stroke="black" fill="none" stroke-linecap="round"></path><path d="M 328.727,211.000 C 333.663,207.991 333.753,208.990 338.182,204.455" stroke-width="3.731" stroke="black" fill="none" stroke-linecap="round"></path><path d="M 338.182,204.455 C 341.913,201.282 342.027,201.446 345.455,197.909" stroke-width="3.559" stroke="black" fill="none" stroke-linecap="round"></path><path d="M 345.455,197.909 C 349.455,193.909 349.549,194.009 353.455,189.909" stroke-width="3.485" stroke="black" fill="none" stroke-linecap="round"></path><path d="M 353.455,189.909 C 356.444,184.627 356.000,187.364 358.546,184.818" stroke-width="3.752" stroke="black" fill="none" stroke-linecap="round"></path><path d="M 358.546,184.818 C 360.730,187.555 360.444,184.991 361.455,190.636" stroke-width="4.667" stroke="black" fill="none" stroke-linecap="round"></path><path d="M 361.455,190.636 C 361.283,193.918 362.184,193.737 361.455,197.182" stroke-width="4.274" stroke="black" fill="none" stroke-linecap="round"></path><path d="M 361.455,197.182 C 360.196,203.011 361.646,200.827 362.182,204.455" stroke-width="4.517" stroke="black" fill="none" stroke-linecap="round"></path><path d="M 362.182,204.455 C 366.144,204.490 364.196,205.920 369.455,203.000" stroke-width="4.570" stroke="black" fill="none" stroke-linecap="round"></path><path d="M 369.455,203.000 C 373.358,200.773 373.417,201.217 376.727,197.909" stroke-width="3.920" stroke="black" fill="none" stroke-linecap="round"></path><path d="M 376.727,197.909 C 380.682,194.540 380.631,194.591 384.000,190.636" stroke-width="3.559" stroke="black" fill="none" stroke-linecap="round"></path><path d="M 384.000,190.636 C 386.783,187.141 386.864,187.267 389.091,183.364" stroke-width="3.600" stroke="black" fill="none" stroke-linecap="round"></path><path d="M 389.091,183.364 C 392.877,176.919 390.783,180.596 392.000,177.545" stroke-width="4.331" stroke="black" fill="none" stroke-linecap="round"></path><path d="M 392.000,177.545 C 387.813,182.128 390.331,178.738 384.000,187.000" stroke-width="4.599" stroke="black" fill="none" stroke-linecap="round"></path><path d="M 384.000,187.000 C 381.123,190.449 381.267,190.492 378.909,194.273" stroke-width="3.927" stroke="black" fill="none" stroke-linecap="round"></path><path d="M 378.909,194.273 C 377.127,197.437 377.123,197.358 376.000,200.818" stroke-width="3.948" stroke="black" fill="none" stroke-linecap="round"></path><path d="M 376.000,200.818 C 373.053,205.871 374.945,203.983 374.546,207.364" stroke-width="4.430" stroke="black" fill="none" stroke-linecap="round"></path><path d="M 374.546,207.364 C 378.968,208.664 376.326,209.144 382.545,207.364" stroke-width="4.516" stroke="black" fill="none" stroke-linecap="round"></path><path d="M 382.545,207.364 C 386.589,204.513 386.968,205.755 390.545,201.545" stroke-width="3.798" stroke="black" fill="none" stroke-linecap="round"></path><path d="M 390.545,201.545 C 394.084,199.284 393.862,199.058 397.091,196.455" stroke-width="3.835" stroke="black" fill="none" stroke-linecap="round"></path><path d="M 397.091,196.455 C 400.026,193.204 400.266,193.466 402.909,189.909" stroke-width="3.748" stroke="black" fill="none" stroke-linecap="round"></path><path d="M 402.909,189.909 C 406.785,184.168 405.117,187.386 407.273,184.818" stroke-width="3.944" stroke="black" fill="none" stroke-linecap="round"></path><path d="M 407.273,184.818 C 405.989,188.778 407.876,185.622 405.091,192.818" stroke-width="4.750" stroke="black" fill="none" stroke-linecap="round"></path><path d="M 405.091,192.818 C 404.206,195.384 404.534,195.324 404.364,197.909" stroke-width="4.440" stroke="black" fill="none" stroke-linecap="round"></path><path d="M 404.364,197.909 C 403.562,203.750 404.569,201.202 405.818,204.455" stroke-width="4.602" stroke="black" fill="none" stroke-linecap="round"></path><path d="M 405.818,204.455 C 411.383,203.940 409.381,205.568 416.000,201.545" stroke-width="4.356" stroke="black" fill="none" stroke-linecap="round"></path><path d="M 416.000,201.545 C 421.075,198.288 421.201,198.849 425.455,194.273" stroke-width="3.563" stroke="black" fill="none" stroke-linecap="round"></path><path d="M 425.455,194.273 C 429.558,189.999 429.802,190.288 433.455,185.545" stroke-width="3.386" stroke="black" fill="none" stroke-linecap="round"></path><path d="M 433.455,185.545 C 437.257,181.309 437.194,181.272 440.727,176.818" stroke-width="3.376" stroke="black" fill="none" stroke-linecap="round"></path><path d="M 440.727,176.818 C 443.312,173.209 443.439,173.309 445.818,169.545" stroke-width="3.542" stroke="black" fill="none" stroke-linecap="round"></path><path d="M 445.818,169.545 C 448.516,166.516 448.039,166.299 450.182,163.000" stroke-width="3.749" stroke="black" fill="none" stroke-linecap="round"></path><path d="M 450.182,163.000 C 451.111,159.307 451.789,159.607 452.364,155.727" stroke-width="3.845" stroke="black" fill="none" stroke-linecap="round"></path><path d="M 452.364,155.727 C 454.175,152.186 453.656,152.034 455.273,148.455" stroke-width="3.849" stroke="black" fill="none" stroke-linecap="round"></path><path d="M 455.273,148.455 C 455.829,145.923 455.993,146.005 456.000,143.364" stroke-width="4.126" stroke="black" fill="none" stroke-linecap="round"></path><path d="M 456.000,143.364 C 456.000,140.455 456.193,140.468 456.000,137.545" stroke-width="4.171" stroke="black" fill="none" stroke-linecap="round"></path><path d="M 456.000,137.545 C 457.365,130.614 456.000,133.909 456.000,130.273" stroke-width="4.468" stroke="black" fill="none" stroke-linecap="round"></path><path d="M 456.000,130.273 C 452.327,132.695 454.456,129.887 450.182,136.091" stroke-width="5.009" stroke="black" fill="none" stroke-linecap="round"></path><path d="M 450.182,136.091 C 448.618,140.055 447.963,139.604 447.273,144.091" stroke-width="4.054" stroke="black" fill="none" stroke-linecap="round"></path><path d="M 447.273,144.091 C 446.387,147.800 446.073,147.691 445.091,151.364" stroke-width="3.937" stroke="black" fill="none" stroke-linecap="round"></path><path d="M 445.091,151.364 C 442.791,155.580 443.478,155.800 441.455,160.091" stroke-width="3.647" stroke="black" fill="none" stroke-linecap="round"></path><path d="M 441.455,160.091 C 440.364,165.545 439.882,165.399 439.273,171.000" stroke-width="3.471" stroke="black" fill="none" stroke-linecap="round"></path><path d="M 439.273,171.000 C 438.256,176.471 438.182,176.455 437.091,181.909" stroke-width="3.362" stroke="black" fill="none" stroke-linecap="round"></path><path d="M 437.091,181.909 C 435.825,186.603 436.075,186.652 434.909,191.364" stroke-width="3.562" stroke="black" fill="none" stroke-linecap="round"></path><path d="M 434.909,191.364 C 433.929,196.072 434.006,196.057 433.455,200.818" stroke-width="3.533" stroke="black" fill="none" stroke-linecap="round"></path><path d="M 433.455,200.818 C 433.455,203.364 433.202,203.344 433.455,205.909" stroke-width="4.055" stroke="black" fill="none" stroke-linecap="round"></path><path d="M 433.455,205.909 C 432.722,209.701 433.455,209.545 433.455,213.182" stroke-width="3.922" stroke="black" fill="none" stroke-linecap="round"></path><path d="M 433.455,213.182 C 433.956,217.505 434.176,216.610 436.364,219.727" stroke-width="4.402" stroke="black" fill="none" stroke-linecap="round"></path><path d="M 436.364,219.727 C 439.617,221.703 438.683,221.868 442.909,221.909" stroke-width="4.557" stroke="black" fill="none" stroke-linecap="round"></path><path d="M 442.909,221.909 C 445.733,221.730 445.435,222.067 448.000,220.455" stroke-width="4.321" stroke="black" fill="none" stroke-linecap="round"></path><path d="M 448.000,220.455 C 451.346,217.998 451.551,218.457 454.545,215.364" stroke-width="3.981" stroke="black" fill="none" stroke-linecap="round"></path><path d="M 454.545,215.364 C 457.732,213.080 457.528,212.907 460.364,210.273" stroke-width="3.847" stroke="black" fill="none" stroke-linecap="round"></path><path d="M 460.364,210.273 C 462.761,206.869 463.186,207.262 465.455,203.727" stroke-width="3.850" stroke="black" fill="none" stroke-linecap="round"></path><path d="M 465.455,203.727 C 467.646,202.178 467.125,201.779 469.091,200.091" stroke-width="4.166" stroke="black" fill="none" stroke-linecap="round"></path><path d="M 469.091,200.091 C 470.625,197.219 470.919,197.451 472.000,194.273" stroke-width="4.142" stroke="black" fill="none" stroke-linecap="round"></path><path d="M 472.000,194.273 C 473.613,191.835 473.171,191.764 474.182,189.182" stroke-width="4.212" stroke="black" fill="none" stroke-linecap="round"></path><path d="M 474.182,189.182 C 474.645,186.561 474.704,186.744 474.182,184.091" stroke-width="4.654" stroke="black" fill="none" stroke-linecap="round"></path><path d="M 474.182,184.091 C 474.162,179.511 473.554,180.743 472.000,177.545" stroke-width="4.876" stroke="black" fill="none" stroke-linecap="round"></path><path d="M 472.000,177.545 C 468.869,176.242 470.162,175.875 466.182,176.818" stroke-width="4.821" stroke="black" fill="none" stroke-linecap="round"></path><path d="M 466.182,176.818 C 463.838,178.075 463.778,177.333 461.818,179.727" stroke-width="4.396" stroke="black" fill="none" stroke-linecap="round"></path><path d="M 461.818,179.727 C 459.287,181.154 459.838,181.348 458.182,183.364" stroke-width="4.342" stroke="black" fill="none" stroke-linecap="round"></path><path d="M 458.182,183.364 C 455.787,187.275 456.741,186.245 456.727,189.909" stroke-width="4.585" stroke="black" fill="none" stroke-linecap="round"></path><path d="M 456.727,189.909 C 458.984,192.837 457.605,192.366 461.818,193.545" stroke-width="4.700" stroke="black" fill="none" stroke-linecap="round"></path><path d="M 461.818,193.545 C 465.313,193.886 464.802,194.291 468.364,192.818" stroke-width="4.175" stroke="black" fill="none" stroke-linecap="round"></path><path d="M 468.364,192.818 C 472.460,190.796 472.585,191.341 476.364,188.455" stroke-width="3.802" stroke="black" fill="none" stroke-linecap="round"></path><path d="M 476.364,188.455 C 479.576,186.174 479.733,186.433 482.909,184.091" stroke-width="3.780" stroke="black" fill="none" stroke-linecap="round"></path><path d="M 482.909,184.091 C 486.416,180.231 485.394,182.538 488.000,181.182" stroke-width="4.009" stroke="black" fill="none" stroke-linecap="round"></path><path d="M 488.000,181.182 C 489.596,184.744 490.052,182.413 490.182,188.455" stroke-width="4.731" stroke="black" fill="none" stroke-linecap="round"></path><path d="M 490.182,188.455 C 488.526,192.848 490.687,191.653 490.182,195.000" stroke-width="4.705" stroke="black" fill="none" stroke-linecap="round"></path><path d="M 490.182,195.000 C 493.731,197.740 492.163,197.575 497.455,197.909" stroke-width="4.611" stroke="black" fill="none" stroke-linecap="round"></path><path d="M 497.455,197.909 C 501.927,197.146 501.731,198.103 506.182,195.727" stroke-width="3.916" stroke="black" fill="none" stroke-linecap="round"></path><path d="M 506.182,195.727 C 510.741,194.274 510.654,194.237 514.909,192.091" stroke-width="3.700" stroke="black" fill="none" stroke-linecap="round"></path><path d="M 514.909,192.091 C 517.967,189.471 518.377,190.274 521.455,187.727" stroke-width="3.801" stroke="black" fill="none" stroke-linecap="round"></path><path d="M 521.455,187.727 C 525.663,184.377 524.513,186.198 528.000,185.545" stroke-width="4.359" stroke="black" fill="none" stroke-linecap="round"></path><path d="M 528.000,185.545 C 530.487,188.988 530.754,186.922 531.636,192.818" stroke-width="4.447" stroke="black" fill="none" stroke-linecap="round"></path><path d="M 531.636,192.818 C 531.937,196.462 532.669,196.261 532.364,200.091" stroke-width="4.125" stroke="black" fill="none" stroke-linecap="round"></path><circle r="1.5" cx="541.0910034179688" cy="155.7272720336914" fill="black"></circle><path d="M 417.455,159.364 C 420.734,159.519 420.727,159.364 424.000,159.364" stroke-width="5.331" stroke="black" fill="none" stroke-linecap="round"></path><path d="M 424.000,159.364 C 428.377,159.120 428.370,159.156 432.727,158.636" stroke-width="4.145" stroke="black" fill="none" stroke-linecap="round"></path><path d="M 432.727,158.636 C 438.169,157.789 438.195,158.029 443.636,157.182" stroke-width="3.541" stroke="black" fill="none" stroke-linecap="round"></path><path d="M 443.636,157.182 C 448.045,157.119 447.987,156.698 452.364,156.455" stroke-width="3.659" stroke="black" fill="none" stroke-linecap="round"></path><path d="M 452.364,156.455 C 457.449,155.335 457.499,155.664 462.545,154.273" stroke-width="3.479" stroke="black" fill="none" stroke-linecap="round"></path><path d="M 462.545,154.273 C 466.163,153.427 466.176,153.516 469.818,152.818" stroke-width="3.774" stroke="black" fill="none" stroke-linecap="round"></path><path d="M 138.182,261.182 C 144.690,259.539 144.727,259.727 151.273,258.273" stroke-width="3.545" stroke="black" fill="none" stroke-linecap="round"></path><path d="M 151.273,258.273 C 163.665,256.243 163.599,255.902 176.000,253.909" stroke-width="2.613" stroke="black" fill="none" stroke-linecap="round"></path><path d="M 176.000,253.909 C 190.470,250.557 190.574,251.152 205.091,248.091" stroke-width="2.191" stroke="black" fill="none" stroke-linecap="round"></path><path d="M 205.091,248.091 C 220.718,245.837 220.652,245.466 236.364,243.727" stroke-width="2.030" stroke="black" fill="none" stroke-linecap="round"></path><path d="M 236.364,243.727 C 253.082,241.478 253.081,241.473 269.818,239.364" stroke-width="1.926" stroke="black" fill="none" stroke-linecap="round"></path><path d="M 269.818,239.364 C 287.631,237.139 287.628,237.114 305.455,235.000" stroke-width="1.788" stroke="black" fill="none" stroke-linecap="round"></path><path d="M 305.455,235.000 C 324.011,232.909 323.995,232.775 342.546,230.636" stroke-width="1.768" stroke="black" fill="none" stroke-linecap="round"></path><path d="M 342.546,230.636 C 362.563,228.222 362.557,228.182 382.545,225.545" stroke-width="1.591" stroke="black" fill="none" stroke-linecap="round"></path><path d="M 382.545,225.545 C 403.252,222.481 403.290,222.767 424.000,219.727" stroke-width="1.660" stroke="black" fill="none" stroke-linecap="round"></path><path d="M 424.000,219.727 C 444.402,217.459 444.343,217.027 464.727,214.636" stroke-width="1.602" stroke="black" fill="none" stroke-linecap="round"></path><path d="M 464.727,214.636 C 483.611,211.551 483.675,212.005 502.545,208.818" stroke-width="1.690" stroke="black" fill="none" stroke-linecap="round"></path><path d="M 502.545,208.818 C 518.907,206.623 518.884,206.460 535.273,204.455" stroke-width="1.790" stroke="black" fill="none" stroke-linecap="round"></path><path d="M 535.273,204.455 C 549.117,202.817 549.089,202.623 562.909,200.818" stroke-width="2.016" stroke="black" fill="none" stroke-linecap="round"></path><path d="M 562.909,200.818 C 574.212,199.166 574.208,199.181 585.455,197.182" stroke-width="2.218" stroke="black" fill="none" stroke-linecap="round"></path><path d="M 585.455,197.182 C 592.719,195.682 592.757,195.893 600.000,194.273" stroke-width="2.715" stroke="black" fill="none" stroke-linecap="round"></path><circle r="1.5" cx="520.727294921875" cy="224.0909194946289" fill="black"></circle><circle r="1.5" cx="550.5454711914062" cy="222.63639068603516" fill="black"></circle></svg>